<?xml version="1.0" encoding="UTF-8"?>
<svg xmlns="http://www.w3.org/2000/svg" xmlns:xlink="http://www.w3.org/1999/xlink" viewBox="0 0 773 773">
  <defs>
    <style>
      .cls-1 {
        fill: #1682fc;
      }

      .cls-1, .cls-2, .cls-3 {
        stroke-width: 0px;
      }

      .cls-4 {
        fill: url(#radial-gradient);
        stroke: #000;
        stroke-miterlimit: 10;
        stroke-width: 8px;
      }

      .cls-2 {
        fill: #e0e1e2;
      }

      .cls-3 {
        fill: #2e3a58;
      }
    </style>
    <radialGradient id="radial-gradient" cx="386.5" cy="386.5" fx="386.5" fy="386.5" r="944.01" gradientUnits="userSpaceOnUse">
      <stop offset="0" stop-color="#fff"/>
      <stop offset=".15" stop-color="#f7fbff"/>
      <stop offset=".37" stop-color="#e3f1ff"/>
      <stop offset=".63" stop-color="#c1e0ff"/>
      <stop offset=".9" stop-color="#9cf"/>
    </radialGradient>
  </defs>
  <g id="Layer_5" data-name="Layer 5">
    <rect class="cls-4" x="4" y="4" width="765" height="765" rx="192" ry="192"/>
  </g>
  <g id="Layer_3" data-name="Layer 3">
    <path class="cls-1" d="M235.22,583.03c-1.75,0-3.42-.7-4.66-1.93l-40.66-40.66c-2.57-2.54-2.6-6.69-.06-9.26.02-.02.04-.04.06-.06l22.94-22.94c2.58-2.55,6.73-2.55,9.32,0l40.66,40.66c2.55,2.58,2.55,6.73,0,9.32l-22.94,22.94c-1.24,1.24-2.91,1.93-4.66,1.93Z"/>
    <rect class="cls-2" x="491.21" y="310.39" width="42.02" height="43.14" transform="translate(-84.71 459.43) rotate(-45)"/>
    <rect class="cls-2" x="485.55" y="240.19" width="108.39" height="25.82" transform="translate(-20.88 455.79) rotate(-45)"/>
    <rect class="cls-2" x="220.67" y="437.04" width="315.34" height="27.37" transform="translate(-207.9 399.54) rotate(-45)"/>
    <rect class="cls-2" x="444.49" y="262.24" width="19.12" height="109.48" transform="translate(-91.15 413.9) rotate(-45)"/>
    <path class="cls-3" d="M276.54,578.46c-1.75.02-3.44-.68-4.66-1.93l-77.41-77.41c-2.57-2.54-2.6-6.69-.06-9.26.02-.02.04-.04.06-.06l222.94-222.99c2.58-2.55,6.73-2.55,9.32,0l77.45,77.45c1.22,1.24,1.91,2.92,1.89,4.66,0,1.74-.67,3.41-1.89,4.66l-222.99,222.94c-1.23,1.25-2.91,1.95-4.66,1.93ZM208.45,494.46l68.09,68.09,213.62-213.62-68.09-68.09-213.62,213.62Z"/>
    <rect class="cls-1" x="116.48" y="590.27" width="115.3" height="13.19" transform="translate(-371.05 297.94) rotate(-45)"/>
    <path class="cls-3" d="M510.56,307.12c-1.75.01-3.43-.68-4.66-1.93l-40.09-40.09c-2.57-2.57-2.57-6.74,0-9.32l76.61-76.66c2.59-2.58,6.77-2.58,9.36,0l40.09,40.09c2.59,2.56,2.6,6.74.04,9.32-.01.01-.03.03-.04.04l-76.66,76.61c-1.23,1.25-2.91,1.95-4.66,1.93ZM479.79,260.44l30.77,30.77,67.34-67.34-30.77-30.77-67.34,67.34Z"/>
    <path class="cls-1" d="M617.73,261.01c-1.75,0-3.42-.7-4.66-1.93l-101.14-101.14c-2.57-2.57-2.57-6.74,0-9.32l18.68-18.68c2.54-2.57,6.69-2.6,9.26-.06.02.02.04.04.06.06l101.14,101.14c1.25,1.22,1.95,2.91,1.93,4.66.01,1.75-.68,3.43-1.93,4.66l-18.68,18.68c-1.23,1.24-2.91,1.94-4.66,1.93Z"/>
    <rect class="cls-3" x="383.32" y="309.16" width="13.19" height="26.38" transform="translate(-113.73 370.13) rotate(-45)"/>
    <rect class="cls-3" x="348.34" y="344.13" width="13.19" height="26.38" transform="translate(-148.71 355.63) rotate(-45)"/>
    <rect class="cls-3" x="313.35" y="379.11" width="13.19" height="26.38" transform="translate(-183.69 341.13) rotate(-45)"/>
    <rect class="cls-3" x="278.36" y="414.13" width="13.19" height="26.38" transform="translate(-218.7 326.65) rotate(-45)"/>
    <rect class="cls-3" x="243.37" y="449.11" width="13.19" height="26.38" transform="translate(-253.68 312.15) rotate(-45)"/>
    <path class="cls-1" d="M272.81,540.52c-.59,0-1.16-.24-1.58-.66-.84-.87-.84-2.25,0-3.12l18.64-18.64c.87-.84,2.25-.84,3.12,0,.86.85.87,2.25.01,3.11,0,0,0,0-.01.01l-18.64,18.64c-.41.41-.96.65-1.54.66ZM310.08,503.21c-1.21-.02-2.18-1.01-2.17-2.23,0-.56.23-1.1.63-1.51l18.64-18.64c.85-.86,2.25-.87,3.11-.01,0,0,0,0,.01.01.84.85.84,2.22,0,3.08l-18.68,18.68c-.41.4-.96.62-1.54.62ZM347.4,465.93c-.59,0-1.16-.24-1.58-.66-.84-.87-.84-2.25,0-3.12l18.68-18.64c.85-.84,2.22-.84,3.08,0,.86.85.87,2.25.01,3.11,0,0,0,0-.01.01l-18.64,18.64c-.41.41-.96.65-1.54.66ZM384.67,428.61c-.57,0-1.12-.23-1.54-.62-.86-.85-.87-2.25-.01-3.11,0,0,0,0,.01-.01l18.64-18.64c.85-.86,2.25-.87,3.11-.01,0,0,0,0,.01.01.84.85.84,2.22,0,3.08l-18.64,18.68c-.43.39-1,.61-1.58.62ZM421.99,391.34c-.59,0-1.16-.24-1.58-.66-.84-.87-.84-2.25,0-3.12l18.68-18.64c.85-.84,2.22-.84,3.08,0,.86.85.87,2.25.01,3.11,0,0,0,0-.01.01l-18.64,18.64c-.41.41-.96.65-1.54.66h0ZM459.27,354.02c-.57,0-1.12-.23-1.54-.62-.86-.85-.87-2.25-.01-3.11,0,0,0,0,.01-.01l18.64-18.64c.85-.86,2.25-.87,3.11-.01,0,0,0,0,.01.01.84.85.84,2.22,0,3.08l-18.64,18.68c-.43.39-1,.61-1.58.62h0Z"/>
    <path class="cls-3" d="M512.63,368.66c-1.75-.02-3.42-.71-4.66-1.93l-103.69-103.69c-1.23-1.24-1.92-2.91-1.93-4.66,0-1.75.7-3.42,1.93-4.66l29.71-29.71c2.54-2.57,6.69-2.6,9.26-.06.02.02.04.04.06.06l103.69,103.69c1.25,1.22,1.95,2.91,1.93,4.66.01,1.75-.68,3.43-1.93,4.66l-29.71,29.71c-1.23,1.24-2.91,1.94-4.66,1.93ZM418.3,258.37l94.33,94.33,20.4-20.35-94.37-94.37-20.35,20.4Z"/>
  </g>
</svg>